Patient4_TMGait_0pt6_01_right_38_EMG.mot
version=1
nRows=16
nColumns=33
inDegrees=no
endheader
time	1LAddLong	2LGlutMax	3LGlutMed	4LIliopsoas	5LSemiMemb	6LBicFemLong	7LRecFem	8LVastMed	9LVastLat	10LGasMed	11LTibAnt	12lTibPost	13LPeroneusLong	14LSol	15LExtDigLong	16LFlexDigLong	17RAddLong	18RGlutMax	19RGlutMed	20RIliopsoas	21RSemiMemb	22RBicFemLong	23RRecFem	24RVastMed	25RVastLat	26RGasMed	27RTibAnt	28RTibPost	29RPeroneusLong	30RSol	31RExtDigLong	32RFlexDigLong
46.963	0.01358	-0.10178	-0.13504	0.007935	0.024719	-0.031433	0.12726	0.004272	0.00824	0.036011	-0.10574	0.11917	-0.081635	-0.002441	-0.14267	0.007629	-0.01709	-0.028076	0.42053	-0.012054	-0.035248	-0.088043	-0.03418	-0.099945	-0.019073	-0.011902	-0.22903	-0.00412	0.66666	0.18295	-0.000458	-0.007935
46.964	0.009155	-0.15305	-0.13626	0.01236	0.02243	0.002136	0.11734	0.014954	0.014801	0.031891	-0.057068	-0.072784	0.046844	-0.066223	0.021973	0.007935	-0.00351	-0.055389	0.3717	-0.010529	-0.043335	-0.12787	0.002441	-0.14801	-0.020752	-0.009308	-0.12528	0.00351	0.31342	0.070496	0.001526	-0.010986
46.965	0.011902	-0.12802	-0.059204	0.035553	0.016327	0.038757	0.13657	0.018768	0.003967	-0.011444	-0.070038	-0.054474	0.10483	-0.076447	0.023193	0.007172	0.015411	-0.091858	0.25726	-0.029907	-0.035706	-0.11688	0.065613	-0.17242	-0.002899	-0.007782	-0.041199	0.002747	0.21652	-0.042419	0.002136	-0.00351
46.966	0.017395	-0.14923	-0.002899	0.039063	0.018616	-0.005341	0.10574	0.024414	0.010376	0.019226	-0.08316	-0.011292	0.062408	0.011597	-0.00824	0.008087	0.011749	-0.064392	0.081177	-0.017395	-0.040894	0.15213	0.064392	-0.13763	-0.012665	0.000763	0.006409	-0.00061	0.058746	-0.09079	-0.000916	0.000153
46.967	0.014343	-0.13016	-0.017853	0.028229	0.019989	-0.019684	-0.029144	0.011139	0.027008	0.024414	-0.06424	-0.0177	0.023651	0.023346	0.016327	-0.007172	0.022583	-0.0354	0.24857	-0.063629	-0.16464	0.14313	0.03891	-0.13138	-0.011902	-0.003357	0.029602	-0.005341	0.044098	-0.002289	0.003815	-0.012665
46.968	0.014648	-0.11627	-0.042419	0.003204	0.014038	-0.028381	-0.085144	0.005341	0.005646	0.000153	-0.04425	-0.005798	0.32394	-0.020294	-0.016174	0.007019	0.035706	-0.088501	0.41534	-0.042267	-0.23254	-0.003357	0.14191	-0.06485	-0.020599	-0.001526	0.050201	-0.003967	-0.011749	0.00351	0.000916	-0.005341
46.969	0.014648	-0.077209	-0.037994	-0.028839	0.01297	-0.028229	0.007019	-0.00885	-0.065613	-0.037231	-0.061951	0.000916	0.4068	0.022278	-0.18219	-0.00473	0.054932	-0.088043	0.21698	0.025635	-0.28778	-0.046844	0.13809	-0.049896	-0.007629	-0.001373	0.039673	0.000153	-0.24323	-0.024109	0.003815	-0.006256
46.97	0.016327	-0.091858	-0.15228	-0.024109	0.016632	-0.002136	0.037537	-0.019226	0.001678	-0.010071	-0.13382	0.004883	0.11032	0	-0.1828	-0.004883	0.045013	-0.15656	-0.12741	0.082245	-0.16266	0.070953	-0.001526	-0.095978	0.002136	0.000305	0.070953	0.002441	-0.50446	0.017242	0.000916	-0.001068
46.971	0.010223	-0.095367	-0.20691	-0.023041	0.014496	0.005188	0.084534	-0.005493	-0.021362	-0.023956	-0.29022	0.016632	0.10422	0.067291	-0.14389	-0.009918	-0.023956	-0.08667	-0.3154	0.095062	0.048523	0.22247	-0.077667	0.009308	0.014648	0.004272	0.039673	0.010223	0.14435	0.00412	0.003967	-0.003052
46.972	0.016022	-0.10132	-0.17639	0.008698	0.020599	-0.00885	0.0383	-0.009155	-0.033264	-0.030975	-0.26245	-0.000458	0.21744	0.1535	-0.03479	-0.003052	-0.052185	-0.087128	-0.17212	0.042267	0.17716	0.15961	-0.15778	0.055542	0.02182	0.002899	0.04776	0.000305	0.61371	-0.056458	0.000305	-0.001373
46.973	0.017853	-0.04837	-0.14587	0.02121	0.011902	0.008087	0.01709	-0.007324	-0.044708	-0.055084	-0.037994	0.003967	-0.70389	0.063171	0.18509	-0.001678	-0.048981	-0.12512	0.10346	-0.103	-0.19836	0.27512	-0.16815	0.029907	0.015411	0.001068	0.097046	-0.000763	0.32684	-0.048523	0.002136	0.001526
46.974	0.015259	-0.001068	-0.1152	0.007324	0.021057	-0.011902	0.007629	-0.003204	-0.022583	-0.058136	0.1503	0.013885	0.041504	0.18112	0.23819	0.002747	-0.028076	-0.096283	0.12772	-0.17319	0.055847	0.30365	-0.17822	0.012054	-0.011292	-0.000458	0.090179	0.000458	-0.80536	-0.052948	0.001831	-0.00061
46.975	0.006561	0.053406	-0.047607	-0.010986	0.016632	-0.001984	-0.019989	0.001984	-0.00885	-0.040588	0.4715	0.009308	0.15945	0.1181	0.2272	-0.001678	0.004272	-0.12283	-0.21683	-0.20447	0.15106	0.20081	-0.08316	-0.021515	0.002747	-0.006714	0.076752	0.008392	-0.97275	-0.057831	0.00351	0.006104
46.976	-0.003204	0.089722	-0.000916	-0.013733	0.019836	-0.002441	0.001373	0.012054	-0.024109	-0.055389	0.3447	0.009155	0.16174	0.1593	-0.079346	0.002289	0.028687	-0.10346	-0.48492	-0.14771	0.18341	0.069122	-0.006561	-0.049286	0.010681	-0.007324	0.027008	-0.000763	0.26962	-0.05722	0.001373	-0.002899
46.977	0.003204	0.094147	0.007324	-0.008698	0.014343	0.00351	0.036316	-0.001831	-0.053864	-0.076752	0.23743	0.007782	0.1358	0.19669	0.41473	0.002441	0.038452	-0.075531	-0.38544	-0.007782	0.10971	-0.008698	0.040131	-0.037689	-0.001068	-0.015259	-0.039825	-0.003052	0.64636	-0.066071	0.002747	0.002441
46.978	-0.000763	0.082092	0.004272	-0.005188	0.014191	-0.00061	0.0354	0.007477	-0.054626	-0.021515	0.29511	0.000916	0.40924	0.043945	0.19058	0.003815	0.048981	-0.088043	-0.29098	0.29984	-0.086517	-0.059662	0.055847	-0.056915	-0.000763	-0.016785	0.049286	-0.003052	-0.10864	-0.033569	0.001373	-0.007324
